/* XPM */
static char *_2c8eb59981d404cfa625211eca18ccdYAWixSB2SzExH3Li[] = {
/* columns rows colors chars-per-pixel */
"32 32 52 1 ",
"  c #390B03",
". c #062D0C",
"X c #112D12",
"o c #132F14",
"O c #163D18",
"+ c #033021",
"@ c #521005",
"# c #501804",
"$ c #751707",
"% c #4E220A",
"& c #562D16",
"* c #722306",
"= c #70310F",
"- c #0D4307",
"; c #0E4908",
": c #094011",
"> c #184019",
", c #1B451D",
"< c #0D5C19",
"1 c #13600A",
"2 c #14690B",
"3 c #04452F",
"4 c #1F5723",
"5 c #205722",
"6 c #205723",
"7 c #205924",
"8 c #225B24",
"9 c #225B25",
"0 c #27632A",
"q c #2E7D31",
"w c #2D7C32",
"e c #2E7D32",
"r c #2D7E32",
"t c #2E7F33",
"y c #7B401F",
"u c #55492D",
"i c #7A6940",
"p c #A33208",
"a c #A14615",
"s c #B05B2D",
"d c #E6641E",
"f c #1B890F",
"g c #1C9610",
"h c #2E8033",
"j c #308234",
"k c #318234",
"l c #318335",
"z c #368A38",
"x c #378C3A",
"c c #388E3C",
"v c #27C416",
"b c #FC8341",
/* pixels */
"eeexllcccceeeckcccccxeeeclxclccc",
"eeeelcccceeeeehccxcceeeeelclccec",
"eeecceclxxqqeccccccxleeeclcxceee",
"cecxeeelkccecxeclclccxeeeclceeee",
"llceeeeelllkxeeeclcxleeeeelxceee",
"cxxleeeccc,,1fffelxxxleeellcccec",
"ceccxecxcxxo--2fcccecccexxcclllc",
"cccllhcxcck0g;.1xxlccelexxlxxxhc",
"ceclccc9iiii22<.&saaaaexellclccc",
"eeeclc0Oisss;2<<&&adda5elcellcec",
"eeeezcisbs1f22<<<.+3ddaa0eeeceee",
"eeec0,sbaafvg;::O.++ppdd45eeeeee",
"cec,sbbuad2;<.**+3*#*pddda5eceee",
"llc=ba=adyysssaadaddaappdd=axxec",
"cxxsb=addysadsdapdaddapppdd=lllx",
"ccxs=addybaddadsppp#dd*pppd=llxc",
"xxxy=dddsbaddads*pp*=d*pppd=hccc",
"cxx&ddd=bbadaada*ppp=ap*ppp#hccc",
"cxx&ddd=bsadaddd*pppp=p**p**cccc",
"cxxOddd=bsddaddd*pppp=pp*p4zhcxc",
"ccxc=dd=bsddaddd#pppd=pp**4echcc",
"clcc=dd=bsddaddd*pppd=ppp*5eellc",
"ccxl=dd#bsad*ddd*pppd=pp$ 5eeecl",
"xccc==d*bbad*ddd*pppd=pp@@eeeehl",
"xclcc0=assad**dd@pppd%*#>8hheecc",
"lcccccl009yddsdsappp4o40kcxxelcc",
"cceclccceeyyy&yy%pp=54echkhlklcc",
"ceeeclcheeeelee40800xheehexlxcll",
"wrrrelcceeexeeeeelcceeeeellccecl",
"crreclcccecxceeecccxceeecccceeec",
"cchcccchlhlcccecxclcxcecxcceeeee",
"lhhccccccxclhllcccccllkcccxceeec"
};
