/* XPM */
static char *_51b80acc2964db6e7b4d1a8c3b48f37xvmwdIq0VoSme4PI[] = {
/* columns rows colors chars-per-pixel */
"32 32 15 1 ",
"  c #3E1F00",
". c #522900",
"X c #592D00",
"o c #663300",
"O c #2D7D32",
"+ c #2E7D32",
"@ c #804000",
"# c #996633",
"$ c #308134",
"% c #318335",
"& c #368A38",
"* c #378C3A",
"= c #388E3C",
"- c gray80",
"; c white",
/* pixels */
"+++*%%==&=+++=%=====*+++=%*=%===",
"++++%= XXXXXXXXXXXXXXXXXXX=%==+=",
"+++==+X@@@@@@@@@@@@@@@@@@@=*=+++",
"=+=*++X@@;;---@@@@@;;---@@%=++++",
"%%=+++X@@;;---@@@@@;;---@@%*=+++",
"=**%++X@@;;;;;@@@@@;;;;;@o%===+=",
"=+==&+X@@@@@@@@@@@@@@@@@@@*=%%%*",
"===%%%X@@@@@@@@@@@@@@@@@@@%**&%=",
"=+=%=*X@@;;---@@@@@;;---@@%=%===",
"+++=%=X@@;;---@@@@@;;---@@+%%=+=",
"++++&=X@@;;;;;@@@@@;;;;;@@%+=+++",
"+++===X@@;;;;;@@@@@;;;;;@@%+++++",
"=+=&==X@@@@@@@@@@@@@@@@@@@++=+++",
"%$====o@@@@@@@@@@@@@@@@@@@+=**+=",
"=&=%%%X@@@@@@@@@@@@@@@@@@@+=%%%=",
"==**=%Xo@##ooo@@@@@...XX@@&%%%*=",
"===%==X@@##ooo@@@@@.....@@+=%===",
"==%==+X@@ooooo@@@@@..ooo@@++%&==",
"====++X@@ooooo@@@@@..ooo@@+=====",
"===+++X@@@@@@@@@@@@@@@@@@@+&+=**",
"====++X@@@@@@@@@@@@@@@@@@@++=%==",
"=%===+X@@@@@@@@@@@@@@@@@@@+++%%=",
"==*%%+X@@@@@@@@@@@@@@@@@@@++++=%",
"*====*X@@##ooo@@@@@##ooo@@+++++%",
"*=%==*X@@##ooo@@@@@##ooo@@++++==",
"%=====X@@ooooo@@@@@ooooo@@*=+%==",
"==+=%=X@@@@@@@@@@@@@@@@@@@+%%%==",
"=+++=%X@@@@@@@@@@@@@@@@@@@=%*=%%",
"+++++%X@@@@@@@@@@@@@@@@@@@%==+=%",
"=+++=%X@@@@@@@@@@@@@@@@@@@==+++=",
"==+=*==%%%%===+===%===+=*==+++++",
"%%%======*=%+%%=====%%+===*=+++="
};
