/* XPM */
static char *_593c5a3f3a14daabd41cb54607e6c45nrPnXDk9LSaTPqh1[] = {
/* columns rows colors chars-per-pixel */
"32 32 18 1 ",
"  c black",
". c #080B2A",
"X c #0C103D",
"o c gray13",
"O c #215A24",
"+ c #225B25",
"@ c #276329",
"# c #2D7E31",
"$ c #2E7D32",
"% c #121858",
"& c #1A237E",
"* c #2E8033",
"= c #318234",
"- c #318335",
"; c #368A38",
": c #378C3A",
"> c #388E3C",
", c gray98",
/* pixels */
"$$$:-->>:>$oooo>oooo:$$$>-:>->>>",
"$$$$->>>>$ooooooooooo$$$$->->>$>",
"$$$>>$>-::ooooooooooo$$$>->:>$$$",
">$>:$$$-->oo,,,o,,,oo:$$$>->$$$$",
"-->$$$$$--oo,o,,,o,oo$$$$$-:>$$$",
">::-$$$>>>oo,o,,,o,oo-$$$-->>>$>",
">$>>:$>:>:oo,o,,,o,oo>>$:::>--*>",
">>>--*>:>>-o,,,,,,,o>$-$::-:::->",
">$>->::---:o,,,,,,,o$$$:$-->->>>",
"$$$>->:-::>$,ooooo,$$$$$->$-->$>",
"$$$$->-::$-$,o,,,o,$$$$>>$$$>$$$",
"$$$>>>>>$$$$,,,,,,,$$$:;$$$$$$$$",
">$>:>>>$$$$%%,,,,,%%%O:;>$$$>$$$",
"-->>>::>$$%%%%% %&%&&%----$>::$>",
">:>*-->>$$%%%&& %&%&&%@---*>--*>",
">>::>->--XX&&&% X&%&&&%>>$:---:>",
">>>->>->%X&%X%% X&%&&&%>$$$>-:>>",
">>->>$>-%%%%%&& %&%&&%&%$$$$-:>>",
">>>>$$$>X%%%%%% %&%&&%&%$$$>>>>>",
">>>$$$$$%&%%%&% %&%&&%&%>$$:*>::",
">>:>$$$>%%X&%%% %&&%&%&%*$$$>->>",
">->>:$>:%&%.X.. %&&%&%&%$$$$$-->",
">>:--->:%&X.%%% %&&%&%&%$$$$$$>-",
":>>>>::-%&XX%&X %&&%&%&%$*$$$$$-",
":>->>:>-%&X%&&X %&&%&%&%*--$$$:>",
"->>>>>->%&X%%&% %&&%&%&%-:::$-:>",
">>$>->:>%&X&%%& %&&%&%&%*-*--->>",
">$$$>->$%%%&%%& %&&%&%&%*$:-:>--",
"$$$$$-:>X%&&%%& %&&%%&&%$-->>$>-",
">$$$>->>%%&&%&& %&&%&&&%>>>>$$$>",
">>$>:>>-%%%%X%% XXXX%%%%:>>$$$$$",
"--->>>>>>:>-*+O@>>>>--*>>>:>$$$>"
};
