/* XPM */
static char *_963264bf80a48198b1e3d896e6ec0e7f0AgB2sJvuPdCONk[] = {
/* columns rows colors chars-per-pixel */
"32 32 9 1 ",
"  c #2D7C31",
". c #2D7D31",
"X c #2E7D32",
"o c #2E8033",
"O c #308133",
"+ c #318335",
"@ c #358837",
"# c #378C3A",
"$ c #388E3C",
/* pixels */
"XXX#++$$#$XXX$+$$$$$#XXX$+#$+$$$",
"XXXX+$$$$XXXXXo$$#$$XXXXX+$+$$X$",
"XXX$$X$+##XXX$$$$$$#+XXX$+$#$XXX",
"$X$#XXX++$$X$#X$+$+$$#XXX$+$XXXX",
"++$XXXXX+++o$XXX$+$#+XXXXX+#$XXX",
"$##+XXX$$$$#XXXXX+###+XXX+o$$$X$",
"$X$$#X$#$$$##XXX$$$o$$$X##$$++o$",
"$$$++o$#$$o##$X$##+$$X+X##+###+$",
"$X$+$##+++#$o+o$$$#$XXX#o++$+$$$",
"XXX$+$#+##$+$$X$o+#XXXXX+$X++$X$",
"XXXX+$+##X++$XXX#++#XXX$$XXX$XXX",
"XXX$$$$$XXX$XXXXXX$$$X##XXXXXXXX",
"$X$#$$$XXXXXXXXX$+X+X+##$XXX$XXX",
"++$$$##$XXXX$+X+#XXX#++O++X$##X$",
"$#$o++$$XXXXXoX$XXXXX+$++++#+++$",
"$$##$+$++XXX#$##XXXX+$+$$X@+++#$",
"$$$+$$+$##X++#+XXXXX+$##XXX$+$$$",
"$$+$$X$++++$+###XXX####XXXXX+#$$",
"$$$$XXX$+$+#+X+$$X##+++$XXX#$$$$",
"$$$XXXXX++$$X+++Xoo@o+o+$XX#o$##",
"$$#$XXX$$$$XXX$XXX$Xo$XoXXXX$+$$",
"$+$$#X$#$#XXXXXXXXXo$XXXXXXXX++$",
"$$#+++$#$#$XXX#XXX$$XXXXXXXXXX$+",
"#$$$$##+o+$$X$#$X$##XXXXXoXXXXX+",
"#$+$$#$+$$++o$o+o#+##XXXoo+XXX#$",
"+$$$$$+$$X$++#++##X+o+X$O$##X+#$",
"$$X$+$#$XXX++#X$+$#+ooX#o+o+++$$",
"$XXX$+$XXXXX+XXX$+$$$XXXoX$+#$++",
"XXXXX+#$XXX$XXXXX+$$XXXXX++$$X$+",
"#XXX$+$$$X$#$XXX$$$#$XXX$$$$XXX$",
"$$X$#$$++o+$$$X$#$+$$$X$#$$XXXXX",
"+++$$$$$$#$+X++$$$$$++o$$$#$XXX$"
};
