/* XPM */
static char *a5252245fd2e4bc3a36de4846512ecc8dWujp7T3BKGfMYB8[] = {
/* columns rows colors chars-per-pixel */
"32 32 33 1 ",
"  c #1B2326",
". c gray13",
"X c #263237",
"o c #27632A",
"O c #2E7D31",
"+ c #2D7C32",
"@ c #2E7D32",
"# c #2D7E32",
"$ c #2E7F33",
"% c #004D40",
"& c #37474F",
"* c #455A64",
"= c #308134",
"- c #308234",
"; c #318335",
": c #368A38",
"> c #378C3A",
", c #388E3C",
"< c #43A047",
"1 c #4CAF50",
"2 c #66BB6A",
"3 c #FDD835",
"4 c #FFEB3B",
"5 c #FFEE58",
"6 c #FFF176",
"7 c #9B59B6",
"8 c #E76EFF",
"9 c #78909C",
"0 c #81C784",
"q c #A5D6A7",
"w c #FFF59D",
"e c #FFA6ED",
"r c #FFF9C4",
/* pixels */
"@@@>;;,,:,@@@,;,,,,,>@@@,=>,;,,,",
"@@@@;,,,,@@@@@=,,:,,@@@@@;,=,,@,",
"@@@,,@,;:,@@@,,,,,,,=@@@,;,,,@@@",
",@,>@@@;;,,@,,@,;,=,,>@@@,;,@@@@",
";;,@@@@@;;;;,99999,:;@@@@@;>,@@@",
",>>;@@@,,,,999X&&&XX,;@@@;=,,,@,",
",@,,:@,>,:99X&&&&&&&&o,@>>,,;;=,",
",,,;;;,>,99&&&&&&&&&X&;@>>;>>>=,",
",@,;,,:999&&&&&&&&&&&&XX&;;,;,,,",
"@@@,;,,9&&&&&&&&&&&&&&&X ,@;;,@,",
"@@@@;,;9&....&&.&&....&&X@@@,@@@",
"@@@,,,,9&.&&.&&.&&.&&.&&X@@@@@@@",
",@,:,,,9&....&&.&&.. .*&X@@@,@@@",
";=,,,,:9&.&.&&&.&&.&&&&&X;@,>>@,",
",:,;;;,9&.&&.&&.&&.&&&&&X;=>;;=,",
",,>>,;,9&&&&&&&&&&&&&&&&&@:;;;>,",
",,,;,,;9&&&&&&&&&&&&&&&X&@=>;,,,",
",,;,,@,9&&&&&&&&&&&&&&&&X@OO;>,,",
",,,rr@@9&&&&&&&&&&&X&&&&&@@,,,,,",
",,rw6r@9&&&&&&&&&&&&&&&X&@O>=,>>",
",r6rw6r9&&&&&&&&&&X&&&&X&#@@e;>,",
",6w6,r69&&&&&&&&&&X&&&&&&@@@e-;,",
",4543639&&&&&&&&&&&&&&&&X@@8788;",
">,40q3>9&&&&&&&&&&&&&&&&Xee7@77e",
">,%2%%,9&&&&&&&&&X&X&&&&Xee7@77e",
";,,%%,;9&&&&&&&&&&&&X&&&X>>8788,",
"0,2%1<>9&&&&&&&&&&&&&&&XX;==e;,,",
"%2%%<;,9&&&&&&&&&&&&&X& &@,;e,;;",
"%%2%<;>9&&&&&&&&&&&&&&&XX;;,%@,;",
">@%%,,@9&&&&&&&&&&&&&&&&&,,,%@@,",
",@%%1,,9&&&&&&&&&&&&X&&X&,,@%@@@",
";;;%@@,9&&&&&&&&&&&&&&&&&,>,%@@,"
};
